<svg version="1.1" xmlns="http://www.w3.org/2000/svg" viewBox="0 0 1469.2980799064408 555.9151699533868" width="4407.894239719322" height="1667.7455098601604">
  <!-- svg-source:excalidraw -->
  
  <defs>
    <style class="style-fonts">
      @font-face {
        font-family: "Virgil";
        src: url("https://excalidraw.com/Virgil.woff2");
      }
      @font-face {
        font-family: "Cascadia";
        src: url("https://excalidraw.com/Cascadia.woff2");
      }
      @font-face {
        font-family: "Assistant";
        src: url("https://excalidraw.com/Assistant-Regular.woff2");
      }
    </style>
    
  </defs>
  <g stroke-opacity="0.5" fill-opacity="0.5" stroke-linecap="round" transform="translate(10 10) rotate(0 724.6490399532204 267.9575849766934)"><path d="M32 0 C524.82 5.28, 1019.23 6.16, 1417.3 0 C1438.23 -2.23, 1449.25 8.84, 1449.3 32 C1447.26 164.52, 1447.87 299.67, 1449.3 503.92 C1450.01 521.89, 1436.35 535.97, 1417.3 535.92 C1084.09 537.49, 752.5 535.17, 32 535.92 C13.53 536.72, 0 522.16, 0 503.92 C0.26 386.06, 1.88 266.2, 0 32 C0.16 11.02, 8.91 1.75, 32 0" stroke="none" stroke-width="0" fill="#a5d8ff"></path><path d="M32 0 C462.97 3.04, 891.99 3.4, 1417.3 0 M32 0 C546.86 0.86, 1061.31 1.3, 1417.3 0 M1417.3 0 C1436.86 0.01, 1449.19 12.5, 1449.3 32 M1417.3 0 C1440.76 -1.95, 1450.55 12.58, 1449.3 32 M1449.3 32 C1449.56 150.74, 1450.36 268.92, 1449.3 503.92 M1449.3 32 C1450.21 203.09, 1450.66 373.29, 1449.3 503.92 M1449.3 503.92 C1450.41 523.78, 1436.81 534.16, 1417.3 535.92 M1449.3 503.92 C1448.3 523.33, 1437.79 533.94, 1417.3 535.92 M1417.3 535.92 C988.42 534.67, 557.97 534.93, 32 535.92 M1417.3 535.92 C1047.87 538.53, 677.97 538.28, 32 535.92 M32 535.92 C10.59 533.92, 0.68 527.08, 0 503.92 M32 535.92 C12.41 534.02, 0.78 524.88, 0 503.92 M0 503.92 C1.68 348.13, 1.34 192.34, 0 32 M0 503.92 C1.5 352.82, 1.38 201.39, 0 32 M0 32 C-1.78 10.59, 10.65 -1.86, 32 0 M0 32 C1.74 9.6, 11.36 0.96, 32 0" stroke="#1e1e1e" stroke-width="1" fill="none"></path></g><g stroke-linecap="round" transform="translate(554.4167466829713 244.32920998941154) rotate(270 171.31661537844593 27.5)"><path d="M-0.24 1.04 L343.54 1.42 L341.92 53.52 L0.42 56.96" stroke="none" stroke-width="0" fill="#ffec99"></path><path d="M0 0 C106.48 0.44, 216.38 2.44, 342.63 0 M0 0 C107.04 -1.11, 214.05 -1.05, 342.63 0 M342.63 0 C342.65 11.93, 343.86 24.57, 342.63 55 M342.63 0 C342.77 11.57, 342.36 23.41, 342.63 55 M342.63 55 C264.61 53.26, 188.14 54.13, 0 55 M342.63 55 C268.71 53.6, 195.78 53.7, 0 55 M0 55 C-2.01 37.53, 1.56 19.32, 0 0 M0 55 C-0.9 33.5, 0.65 13.34, 0 0" stroke="#1e1e1e" stroke-width="4" fill="none"></path></g><g transform="translate(635.3013933724524 249.32920998941154) rotate(270 90.43196868896484 22.5)"><text x="90.43196868896484" y="31.536" font-family="Virgil, Segoe UI Emoji" font-size="36px" fill="#1e1e1e" text-anchor="middle" style="white-space: pre;" direction="ltr" dominant-baseline="alphabetic">BlockChain</text></g><g stroke-linecap="round" transform="translate(1141.604455811419 243.68370217691063) rotate(270 187.236328125 29.15625)"><path d="M0.33 1.84 L372.49 -0.61 L374.97 57.19 L-0.51 57.17" stroke="none" stroke-width="0" fill="#b2f2bb"></path><path d="M0 0 C81.95 0.58, 166.11 2.51, 374.47 0 M0 0 C117.85 -0.29, 235.81 -0.37, 374.47 0 M374.47 0 C372.95 18.84, 372.72 36.01, 374.47 58.31 M374.47 0 C374.23 13.15, 373.34 26.92, 374.47 58.31 M374.47 58.31 C235.95 56.93, 97.08 57, 0 58.31 M374.47 58.31 C235.26 58.3, 96.98 57.81, 0 58.31 M0 58.31 C-1.69 36.07, 1.05 13.55, 0 0 M0 58.31 C0.19 36.75, -0.4 14.1, 0 0" stroke="#1e1e1e" stroke-width="4" fill="none"></path></g><g transform="translate(1253.7268084115167 250.33995217691063) rotate(270 75.11397552490234 22.5)"><text x="75.11397552490234" y="31.536" font-family="Virgil, Segoe UI Emoji" font-size="36px" fill="#1e1e1e" text-anchor="middle" style="white-space: pre;" direction="ltr" dominant-baseline="alphabetic">Frontend</text></g><g stroke-linecap="round" transform="translate(-64.61038793858461 241.66221780191245) rotate(270 187.236328125 29.15625)"><path d="M1.79 1.91 L373.68 -0.89 L375.51 56.81 L1.75 57.65" stroke="none" stroke-width="0" fill="#a5d8ff"></path><path d="M0 0 C98.63 -1.28, 198.02 -1.87, 374.47 0 M0 0 C123.58 2.24, 246.59 2.11, 374.47 0 M374.47 0 C374.98 20.66, 374.74 44.54, 374.47 58.31 M374.47 0 C373.9 19.71, 373.6 36.95, 374.47 58.31 M374.47 58.31 C280.44 59.5, 187.85 60.13, 0 58.31 M374.47 58.31 C294.48 57.49, 214.89 56.68, 0 58.31 M0 58.31 C-0.81 36.61, 1.48 11.22, 0 0 M0 58.31 C-0.09 36.88, 1.42 13.09, 0 0" stroke="#1e1e1e" stroke-width="4" fill="none"></path></g><g transform="translate(51.237962586317735 248.31846780191245) rotate(270 71.38797760009766 22.5)"><text x="71.38797760009766" y="31.536" font-family="Virgil, Segoe UI Emoji" font-size="36px" fill="#1e1e1e" text-anchor="middle" style="white-space: pre;" direction="ltr" dominant-baseline="alphabetic">Backend</text></g><g mask="url(#mask-eQzzgr4ivYmP9Thy9uYV-)" stroke-linecap="round"><g transform="translate(1264.3573854989172 127.40363216501555) rotate(0 -243.7246093750009 -0.30647891386070114)"><path d="M0 0 C-103.99 -0.06, -206.47 0.57, -487.45 -0.61 M0 0 C-189.25 -0.22, -379.23 -0.5, -487.45 -0.61" stroke="#1e1e1e" stroke-width="4" fill="none"></path></g><g transform="translate(1264.3573854989172 127.40363216501555) rotate(0 -243.7246093750009 -0.30647891386070114)"><path d="M-486.9 -1.78 L-473.91 -4.99 L-473.18 5.44 L-486.71 0.96" stroke="none" stroke-width="0" fill="#1e1e1e" fill-rule="evenodd"></path><path d="M-487.45 -0.61 C-485.59 -2.25, -481.1 -2.24, -473.85 -6.94 M-487.45 -0.61 C-481.66 -2.32, -477.24 -4.86, -473.85 -6.94 M-473.85 -6.94 C-474.48 -3.43, -473.68 1.08, -473.86 5.74 M-473.85 -6.94 C-473.61 -3.91, -473.88 -0.39, -473.86 5.74 M-473.86 5.74 C-478.88 3.89, -483.14 1.29, -487.45 -0.61 M-473.86 5.74 C-478.03 3.83, -483.3 0.98, -487.45 -0.61 M-487.45 -0.61 C-487.45 -0.61, -487.45 -0.61, -487.45 -0.61 M-487.45 -0.61 C-487.45 -0.61, -487.45 -0.61, -487.45 -0.61" stroke="#1e1e1e" stroke-width="4" fill="none"></path></g></g><mask id="mask-eQzzgr4ivYmP9Thy9uYV-"><rect x="0" y="0" fill="#fff" width="1851.806604248919" height="228.01658999273695"></rect><rect x="967.8984011239154" y="115.09715325115485" fill="#000" width="105.46875" height="24" opacity="1"></rect></mask><g transform="translate(967.8984011239154 115.09715325115485) rotate(0 52.73437500000091 12.056814015503278)"><text x="52.734375" y="19.3125" font-family="Cascadia, Segoe UI Emoji" font-size="20px" fill="#1e1e1e" text-anchor="middle" style="white-space: pre;" direction="ltr" dominant-baseline="alphabetic">deposit()</text></g><g mask="url(#mask-B3sEGA_vX9t1yp2GatMNH)" stroke-linecap="round"><g transform="translate(778.1132448739118 164.19585425531295) rotate(0 245.84667968750273 0)"><path d="M0 0 C192.01 -2.14, 385.39 -1.71, 491.69 0 M0 0 C166.32 0.82, 333.12 0.52, 491.69 0" stroke="#1e1e1e" stroke-width="4" fill="none"></path></g><g transform="translate(778.1132448739118 164.19585425531295) rotate(0 245.84667968750273 0)"><path d="M492.04 1.27 L477.29 4.96 L476.85 -5.92 L491.34 -0.4" stroke="none" stroke-width="0" fill="#1e1e1e" fill-rule="evenodd"></path><path d="M491.69 0 C485.2 1.77, 481.13 5.06, 478.12 6.38 M491.69 0 C486.76 2.31, 482.76 3.92, 478.12 6.38 M478.12 6.38 C476.98 2.66, 478.52 -4.69, 478.08 -6.3 M478.12 6.38 C478.57 1.54, 477.49 -3.21, 478.08 -6.3 M478.08 -6.3 C482.42 -4.88, 485.2 -2.7, 491.69 0 M478.08 -6.3 C482.4 -3.89, 486.72 -1.52, 491.69 0 M491.69 0 C491.69 0, 491.69 0, 491.69 0 M491.69 0 C491.69 0, 491.69 0, 491.69 0" stroke="#1e1e1e" stroke-width="4" fill="none"></path></g></g><mask id="mask-B3sEGA_vX9t1yp2GatMNH"><rect x="0" y="0" fill="#fff" width="1369.8066042489172" height="264.19585425531295"></rect><rect x="930.2099245614154" y="152.19585425531295" fill="#000" width="187.5" height="24.00000000000009" opacity="1"></rect></mask><g transform="translate(930.2099245614154 152.19585425531295) rotate(0 93.74999999999909 11.529174230142416)"><text x="93.75" y="19.31250000000007" font-family="Cascadia, Segoe UI Emoji" font-size="20.000000000000075px" fill="#1e1e1e" text-anchor="middle" style="white-space: pre;" direction="ltr" dominant-baseline="alphabetic">withdraw(amount)</text></g><g mask="url(#mask-JQJRPyWToe2CAKfY5IHbe)" stroke-linecap="round"><g transform="translate(178.3739870614154 152.90928811441154) rotate(0 245.84667968750273 0)"><path d="M0 0 C172.66 0.01, 344.94 0.1, 491.69 0 M0 0 C130.28 -0.55, 260.89 -0.16, 491.69 0" stroke="#1e1e1e" stroke-width="4" fill="none"></path></g><g transform="translate(178.3739870614154 152.90928811441154) rotate(0 245.84667968750273 0)"><path d="M491.2 0.76 L476.48 7.94 L477.8 -5.07 L490.29 1.89" stroke="none" stroke-width="0" fill="#1e1e1e" fill-rule="evenodd"></path><path d="M491.69 0 C487.56 2, 482.78 4.38, 478.09 6.33 M491.69 0 C487.87 1.76, 484.59 4.14, 478.09 6.33 M478.09 6.33 C479.33 1.26, 477.7 -4.71, 478.1 -6.35 M478.09 6.33 C477.83 3.37, 478.02 0.02, 478.1 -6.35 M478.1 -6.35 C482.2 -6, 484.35 -2.98, 491.69 0 M478.1 -6.35 C483.58 -4.1, 489.42 -1.6, 491.69 0 M491.69 0 C491.69 0, 491.69 0, 491.69 0 M491.69 0 C491.69 0, 491.69 0, 491.69 0" stroke="#1e1e1e" stroke-width="4" fill="none"></path></g></g><mask id="mask-JQJRPyWToe2CAKfY5IHbe"><rect x="0" y="0" fill="#fff" width="770.0673464364208" height="252.90928811441154"></rect><rect x="371.48629174891903" y="140.90928811441154" fill="#000" width="105.46875" height="24.00000000000009" opacity="1"></rect></mask><g transform="translate(371.48629174891903 140.90928811441154) rotate(0 52.73437499999909 11.880705024724193)"><text x="52.734375" y="19.31250000000007" font-family="Cascadia, Segoe UI Emoji" font-size="20.000000000000075px" fill="#1e1e1e" text-anchor="middle" style="white-space: pre;" direction="ltr" dominant-baseline="alphabetic">endGame()</text></g><g mask="url(#mask-RvAm9gwe4i-cerTgAprNe)" stroke-linecap="round"><g transform="translate(776.6230104989172 275.9408660637837) rotate(0 255.087890625 0)"><path d="M0 0 C109.52 -0.54, 220.61 -0.46, 510.18 0 M0 0 C164.52 1.31, 328.35 0.85, 510.18 0" stroke="#1e1e1e" stroke-width="4" fill="none"></path></g><g transform="translate(776.6230104989172 275.9408660637837) rotate(0 255.087890625 0)"><path d="M511.15 -0.53 L496.03 6.61 L498.13 -4.46 L510.88 0.56" stroke="none" stroke-width="0" fill="#1e1e1e" fill-rule="evenodd"></path><path d="M510.18 0 C506.39 1.58, 505.57 3.1, 496.61 6.39 M510.18 0 C506.46 2.48, 501.38 3.67, 496.61 6.39 M496.61 6.39 C496.18 2.71, 495.34 -2.68, 496.56 -6.29 M496.61 6.39 C497.11 1.32, 497.15 -3.1, 496.56 -6.29 M496.56 -6.29 C500.36 -4.49, 505.86 -2.05, 510.18 0 M496.56 -6.29 C499.92 -4.01, 504.38 -2.53, 510.18 0 M510.18 0 C510.18 0, 510.18 0, 510.18 0 M510.18 0 C510.18 0, 510.18 0, 510.18 0" stroke="#1e1e1e" stroke-width="4" fill="none"></path></g></g><mask id="mask-RvAm9gwe4i-cerTgAprNe"><rect x="0" y="0" fill="#fff" width="1386.7987917489172" height="375.9408660637837"></rect><rect x="961.3984011239172" y="263.9408660637837" fill="#000" width="140.625" height="24" opacity="1"></rect></mask><g transform="translate(961.3984011239172 263.9408660637837) rotate(0 70.3125 12.223513194495354)"><text x="70.3125" y="19.3125" font-family="Cascadia, Segoe UI Emoji" font-size="20px" fill="#1e1e1e" text-anchor="middle" style="white-space: pre;" direction="ltr" dominant-baseline="alphabetic">getBalance()</text></g><g mask="url(#mask-pAxNNcZ5Z_JxhEaMSTEd_)" stroke-linecap="round"><g transform="translate(776.6230104989172 305.9016395890976) rotate(0 255.087890625 0)"><path d="M0 0 C189.59 -0.66, 380.43 -0.05, 510.18 0 M0 0 C159.88 2.07, 319.32 1.83, 510.18 0" stroke="#1e1e1e" stroke-width="4" fill="none"></path></g><g transform="translate(776.6230104989172 305.9016395890976) rotate(0 255.087890625 0)"><path d="M510.2 1.54 L498.1 7.41 L495.28 -6.28 L510.22 1.13" stroke="none" stroke-width="0" fill="#1e1e1e" fill-rule="evenodd"></path><path d="M510.18 0 C503.77 1.21, 499.67 4.75, 496.63 6.44 M510.18 0 C506.69 2.11, 502.31 3.66, 496.63 6.44 M496.63 6.44 C495.81 2.85, 496.7 0.41, 496.54 -6.24 M496.63 6.44 C497.07 1.79, 496.15 -2.38, 496.54 -6.24 M496.54 -6.24 C498.63 -3.55, 501.48 -3.04, 510.18 0 M496.54 -6.24 C500.09 -4.76, 504.23 -3.11, 510.18 0 M510.18 0 C510.18 0, 510.18 0, 510.18 0 M510.18 0 C510.18 0, 510.18 0, 510.18 0" stroke="#1e1e1e" stroke-width="4" fill="none"></path></g></g><mask id="mask-pAxNNcZ5Z_JxhEaMSTEd_"><rect x="0" y="0" fill="#fff" width="1386.7987917489172" height="405.9016395890976"></rect><rect x="943.8202761239172" y="293.9016395890976" fill="#000" width="175.78125" height="24" opacity="1"></rect></mask><g transform="translate(943.8202761239172 293.9016395890976) rotate(0 87.890625 12.578330339632885)"><text x="87.890625" y="19.3125" font-family="Cascadia, Segoe UI Emoji" font-size="20px" fill="#1e1e1e" text-anchor="middle" style="white-space: pre;" direction="ltr" dominant-baseline="alphabetic">getMinDeposit()</text></g><g mask="url(#mask-SkqgtnG9fzsVpKIb0y8aT)" stroke-linecap="round"><g transform="translate(776.6230104989172 335.86241311441154) rotate(0 255.087890625 0)"><path d="M0 0 C188.24 1.26, 376.59 1.93, 510.18 0 M0 0 C149.18 0.71, 298.79 0.44, 510.18 0" stroke="#1e1e1e" stroke-width="4" fill="none"></path></g><g transform="translate(776.6230104989172 335.86241311441154) rotate(0 255.087890625 0)"><path d="M509.77 -1.2 L495.97 7.35 L497.48 -5.1 L508.29 -0.2" stroke="none" stroke-width="0" fill="#1e1e1e" fill-rule="evenodd"></path><path d="M510.18 0 C505.73 1.36, 501.48 4.96, 496.59 6.36 M510.18 0 C505.56 2.46, 501.78 3.83, 496.59 6.36 M496.59 6.36 C497.56 4.48, 496.4 0.14, 496.57 -6.31 M496.59 6.36 C496.3 3.52, 496.46 0.03, 496.57 -6.31 M496.57 -6.31 C502.46 -3.37, 506.49 -0.4, 510.18 0 M496.57 -6.31 C500.92 -4.19, 503.33 -2.79, 510.18 0 M510.18 0 C510.18 0, 510.18 0, 510.18 0 M510.18 0 C510.18 0, 510.18 0, 510.18 0" stroke="#1e1e1e" stroke-width="4" fill="none"></path></g></g><mask id="mask-SkqgtnG9fzsVpKIb0y8aT"><rect x="0" y="0" fill="#fff" width="1386.7987917489172" height="435.86241311441154"></rect><rect x="949.6796511239172" y="323.86241311441154" fill="#000" width="164.0625" height="24" opacity="1"></rect></mask><g transform="translate(949.6796511239172 323.86241311441154) rotate(0 82.03125 12.604588118591892)"><text x="82.03125" y="19.3125" font-family="Cascadia, Segoe UI Emoji" font-size="20px" fill="#1e1e1e" text-anchor="middle" style="white-space: pre;" direction="ltr" dominant-baseline="alphabetic">getGamePrice()</text></g><g mask="url(#mask--wTsIKFv6ywYoCxG2D6PG)" stroke-linecap="round"><g transform="translate(1266.6015261239154 412.78607952827133) rotate(0 -243.7246093750009 -0.30647891386070114)"><path d="M0 0 C-121.53 -1.11, -241.87 -2.22, -487.45 -0.61 M0 0 C-118.11 -1.01, -235.46 -1.19, -487.45 -0.61" stroke="#1e1e1e" stroke-width="4" fill="none"></path></g><g transform="translate(1266.6015261239154 412.78607952827133) rotate(0 -243.7246093750009 -0.30647891386070114)"><path d="M-488.86 -2.26 L-473.97 -5.39 L-475.72 7.44 L-486.71 -0.3" stroke="none" stroke-width="0" fill="#1e1e1e" fill-rule="evenodd"></path><path d="M-487.45 -0.61 C-484.44 -1.45, -479.28 -4.74, -473.86 -6.97 M-487.45 -0.61 C-484.77 -2.63, -480.71 -4.24, -473.86 -6.97 M-473.86 -6.97 C-473.79 -4.06, -473.46 -1.27, -473.84 5.7 M-473.86 -6.97 C-473.66 -3.68, -473.12 0.76, -473.84 5.7 M-473.84 5.7 C-478.44 2.79, -480.9 3.39, -487.45 -0.61 M-473.84 5.7 C-476.75 4.47, -480.11 3.51, -487.45 -0.61 M-487.45 -0.61 C-487.45 -0.61, -487.45 -0.61, -487.45 -0.61 M-487.45 -0.61 C-487.45 -0.61, -487.45 -0.61, -487.45 -0.61" stroke="#1e1e1e" stroke-width="4" fill="none"></path></g></g><mask id="mask--wTsIKFv6ywYoCxG2D6PG"><rect x="0" y="0" fill="#fff" width="1854.0507448739172" height="513.3990373559927"></rect><rect x="987.7206667489154" y="400.47960061441063" fill="#000" width="70.3125" height="24" opacity="1"></rect></mask><g transform="translate(987.7206667489154 400.47960061441063) rotate(0 35.15624999999909 11.597602021889543)"><text x="35.15625" y="19.3125" font-family="Cascadia, Segoe UI Emoji" font-size="20px" fill="#1e1e1e" text-anchor="middle" style="white-space: pre;" direction="ltr" dominant-baseline="alphabetic">join()</text></g></svg>